<svg width="64" height="64" viewBox="0 0 64 64" fill="none" xmlns="http://www.w3.org/2000/svg">
<path d="M55 32C55 36.1893 53.88 40.117 51.923 43.5C49.9032 46.9917 46.9917 49.9032 43.5 51.923C40.117 53.88 36.1893 55 32 55C27.8107 55 23.883 53.88 20.5 51.923C17.0083 49.9032 14.0968 46.9917 12.077 43.5C10.12 40.117 9 36.1893 9 32C9 27.8107 10.12 23.883 12.077 20.5C14.0968 17.0083 17.0083 14.0968 20.5 12.077C23.883 10.12 27.8107 9 32 9C36.1893 9 40.117 10.12 43.5 12.077C46.9917 14.0968 49.9032 17.0083 51.923 20.5C53.88 23.883 55 27.8107 55 32Z" fill="#540EE8"/>
<path fill-rule="evenodd" clip-rule="evenodd" d="M21.4172 12.7077C21.1352 14.6286 20.8955 16.5542 20.6981 18.483C24.1263 18.1946 27.5628 18.0376 31 18.0121V10.0223C27.5358 10.1772 24.2821 11.1326 21.4172 12.7077ZM33 10.0223V18.0121C36.4372 18.0376 39.8737 18.1946 43.3019 18.483C43.1045 16.5542 42.8648 14.6286 42.5828 12.7077C39.7179 11.1326 36.4642 10.1772 33 10.0223ZM44.7983 14.1036C45.0019 15.6231 45.1794 17.1452 45.3308 18.6692C46.8548 18.8206 48.3769 18.9981 49.8964 19.2017C48.4881 17.2361 46.7639 15.5119 44.7983 14.1036ZM51.2923 21.4172C49.3714 21.1352 47.4458 20.8955 45.517 20.6981C45.8054 24.1263 45.9624 27.5628 45.9879 31H53.9777C53.8228 27.5358 52.8674 24.2821 51.2923 21.4172ZM53.9777 33H45.9879C45.9624 36.4372 45.8054 39.8737 45.517 43.3019C47.4458 43.1045 49.3714 42.8648 51.2923 42.5828C52.8674 39.7179 53.8228 36.4642 53.9777 33ZM49.8964 44.7983C48.3769 45.0019 46.8548 45.1794 45.3308 45.3308C45.1794 46.8548 45.0019 48.3769 44.7983 49.8964C46.7639 48.4881 48.4881 46.7639 49.8964 44.7983ZM42.5828 51.2923C42.8648 49.3714 43.1045 47.4458 43.3019 45.517C39.8737 45.8054 36.4372 45.9624 33 45.9879V53.9777C36.4642 53.8228 39.7179 52.8674 42.5828 51.2923ZM31 53.9777V45.9879C27.5628 45.9624 24.1263 45.8054 20.6981 45.517C20.8955 47.4458 21.1352 49.3714 21.4172 51.2923C24.2821 52.8674 27.5358 53.8228 31 53.9777ZM19.2017 49.8964C18.9981 48.3769 18.8206 46.8548 18.6692 45.3308C17.1452 45.1794 15.6231 45.0019 14.1036 44.7983C15.5119 46.7639 17.2361 48.4881 19.2017 49.8964ZM12.7077 42.5828C14.6286 42.8648 16.5542 43.1045 18.483 43.3019C18.1946 39.8737 18.0376 36.4372 18.0121 33H10.0223C10.1772 36.4642 11.1326 39.7179 12.7077 42.5828ZM10.0223 31H18.0121C18.0376 27.5628 18.1946 24.1263 18.483 20.6981C16.5542 20.8955 14.6286 21.1352 12.7077 21.4172C11.1326 24.2821 10.1772 27.5358 10.0223 31ZM14.1036 19.2017C15.6231 18.9981 17.1452 18.8206 18.6692 18.6692C18.8206 17.1452 18.9981 15.6231 19.2017 14.1036C17.2361 15.5119 15.5119 17.2361 14.1036 19.2017ZM20.5067 20.5067C20.2034 23.9982 20.0385 27.4987 20.0122 31H31V20.0122C27.4987 20.0385 23.9982 20.2034 20.5067 20.5067ZM33 20.0122V31H43.9878C43.9615 27.4987 43.7966 23.9982 43.4933 20.5067C40.0018 20.2034 36.5013 20.0385 33 20.0122ZM43.9878 33H33V43.9878C36.5013 43.9615 40.0018 43.7966 43.4933 43.4933C43.7966 40.0018 43.9615 36.5013 43.9878 33ZM31 43.9878V33H20.0122C20.0385 36.5013 20.2034 40.0018 20.5067 43.4933C23.9982 43.7966 27.4987 43.9615 31 43.9878ZM19.9993 11.2114C23.5304 9.16875 27.6302 8 32 8C36.3698 8 40.4696 9.16875 44.0007 11.2114C47.6439 13.3188 50.6812 16.3561 52.7886 19.9993C54.8312 23.5304 56 27.6302 56 32C56 36.3698 54.8312 40.4696 52.7886 44.0007C50.6812 47.6439 47.6439 50.6812 44.0007 52.7886C40.4696 54.8312 36.3698 56 32 56C27.6302 56 23.5304 54.8312 19.9993 52.7886C16.3561 50.6812 13.3188 47.6439 11.2114 44.0007C9.16875 40.4696 8 36.3698 8 32C8 27.6302 9.16875 23.5304 11.2114 19.9993C13.3188 16.3561 16.3561 13.3188 19.9993 11.2114Z" fill="white"/>
</svg>
